<svg xmlns="http://www.w3.org/2000/svg" height="24px" viewBox="0 0 24 24" width="24px" fill="#FFFFFF"><path d="M 0 0 h 7 v 1 H 6 v 1 H 5 v 1 H 4 v 1 H 3 v 1 H 2 v 1 h 5 v 1 H 0 V 6 h 1 V 5 h 1 V 4 h 1 V 3 h 1 V 2 h 1 V 1 H 0 m 13 2 h 5 v 1 h -1 v 1 h -1 v 1 h -1 v 1 h 3 v 1 h -5 V 7 h 1 V 6 h 1 V 5 h 1 V 4 h -3 m 8 5 h 1 v 5 h 1 v -1 h 1 v 1 h -1 v 1 h 1 v -1 h 1 v 1 h -1 v 3 h -1 v 1 h -2 v 1 h -1 v 1 h 1 v -1 h 2 v -1 h 1 v 2 h -1 v 1 h -2 v 1 h -1 v -1 h -1 v 1 h -6 v -1 h -1 v -1 h -1 v -2 h 1 v 1 h 2 v 1 h 3 v 1 h 1 v -1 h -1 v -1 h -3 v -1 h -4 v -4 h 1 v -2 h 1 v -1 h 1 v -1 h 1 v 2 h 1 v 1 h 1 v -1 h 1 v 1 h -1 v 1 h 2 v -2 h 1 v -2 h 1 v -1 h 1 M 8 14 h 2 v 1 H 9 v 4 h 1 v 2 h 1 v 1 h 1 v 1 h 1 v 1 h 4 v 1 h -6 v -1 H 5 v -1 H 4 v -5 h 1 v -1 h 1 v -2 h 2 m 17 3 h 1 v 3 h -1 v 1 h -1 v 1 h -1 v 2 h -2 v -2 h 2 v -1 h 1 v -1 h 1 m 1 0 h 1 v 3 h -1 v 1 h -2 v -1 h 1 v -1 h 1"/></svg>